<?xml version="1.0" encoding="UTF-8"?>
<svg id="Layer_1" data-name="Layer 1" xmlns="http://www.w3.org/2000/svg" viewBox="0 0 1000 1000">
  <defs>
    <style>
      .cls-1 {
        fill: #fff;
      }

      .cls-2 {
        fill: #7b2bf9;
      }
    </style>
  </defs>
  <rect class="cls-2" width="1000" height="1000"/>
  <path class="cls-1" d="M859.76,429.37c-1.47-9.19-4.44-18.04-8.85-26.31-21.28-39.71-66.37-43.74-148.23-51.08-32.49-2.91-52.1-4.67-60.42-9.66-2.28-1.39-4.4-2.98-6.44-4.81-7.13-6.46-14.39-24.54-26.62-55.01-32.16-80.19-48.31-120.42-91.93-129.68-11.5-2.43-23.09-2.43-34.63,.02-43.54,9.25-59.74,49.65-92.05,130.15v.02c-12.01,29.96-19.24,48.04-26.44,54.55-2,1.81-4.16,3.4-6.42,4.77-8.28,4.99-27.9,6.75-60.42,9.66-81.84,7.34-126.9,11.37-148.21,51.1-4.42,8.26-7.4,17.1-8.87,26.33-7.05,44.48,26.11,74.66,86.44,129.53l14.49,13.21c18.71,17.04,30.02,27.35,33.47,34.08,2.08,4.08,3.47,8.48,4.12,13.05,1.1,7.5-2.24,22.54-7.77,47.45l-2.55,11.46c-15.31,68.98-22.3,100.45-6.6,128.33,14.17,25.15,39.87,41.01,68.83,42.4,1.08,.04,2.14,.08,3.18,.08,30.47,0,55.63-20.51,108.8-63.88,22.67-18.43,37.63-30.62,45.84-32.98,7.52-2.12,15.45-2.16,23.07,.04,8.09,2.28,22.89,14.35,46,33.1,54.75,44.72,80.43,64.86,111.82,63.64,28.86-1.39,54.55-17.24,68.73-42.4,15.74-27.88,8.72-59.44-6.6-128.41l-2.49-11.37c-5.54-24.91-8.89-39.95-7.79-47.49,.65-4.57,2.04-8.97,4.08-12.96,3.47-6.77,14.76-17.08,33.75-34.37l14.23-12.96c60.25-54.81,93.44-85.02,86.42-129.58Zm-114.51,98.71l-14.22,12.94c-23.94,21.78-35.91,32.67-42.84,46.27-4.15,8.15-6.94,16.93-8.24,25.99-2.17,15.1,1.33,30.9,8.34,62.5l2.5,11.29c12.57,56.67,18.86,85,11.01,98.93-7.05,12.51-20.03,20.52-34.38,21.2-15.97,.76-38.47-17.57-83.47-54.24-29.65-24.16-44.47-36.24-60.93-40.96-15.04-4.31-30.99-4.31-46.02,0-16.46,4.72-31.28,16.8-60.93,40.96-45,36.67-67.5,55-83.47,54.24-14.34-.68-27.33-8.69-34.38-21.2-7.85-13.93-1.56-42.26,11.01-98.93l2.51-11.29c7.01-31.6,10.52-47.4,8.34-62.5-1.3-9.06-4.09-17.84-8.24-25.99-6.92-13.59-18.9-24.48-42.84-46.27l-14.22-12.94c-51.21-46.59-76.82-69.89-73.29-92.14,.73-4.61,2.23-9.06,4.43-13.17,10.64-19.86,45.47-22.98,115.13-29.22,41.15-3.69,61.73-5.53,78.21-15.46,4.62-2.79,8.97-6.01,12.96-9.64,14.26-12.92,21.88-31.92,37.12-69.92,26.8-66.82,40.21-100.23,61.98-104.86,5.73-1.22,11.64-1.22,17.37,0,21.77,4.63,35.17,38.04,61.98,104.86,15.24,38,22.86,57,37.12,69.92,4,3.62,8.34,6.85,12.97,9.64,16.48,9.93,37.06,11.78,78.21,15.46,69.66,6.24,104.49,9.36,115.13,29.22,2.2,4.11,3.7,8.57,4.43,13.17,3.52,22.25-22.08,45.55-73.3,92.14Z"/>
</svg>